<mxfile host="app.diagrams.net" agent="Mozilla/5.0 (Windows NT 10.0; Win64; x64) AppleWebKit/537.36 (KHTML, like Gecko) Chrome/130.0.0.0 Safari/537.36 OPR/115.0.0.0" version="25.0.3">
  <diagram name="Page-1" id="2YBvvXClWsGukQMizWep">
    <mxGraphModel dx="1380" dy="739" grid="1" gridSize="10" guides="1" tooltips="1" connect="1" arrows="1" fold="1" page="1" pageScale="1" pageWidth="850" pageHeight="1100" math="0" shadow="0">
      <root>
        <mxCell id="0" />
        <mxCell id="1" parent="0" />
        <mxCell id="Gn9DC5H_VMgkAR2NqS4y-1" value="ms-creditos" style="shape=umlLifeline;perimeter=lifelinePerimeter;whiteSpace=wrap;html=1;container=0;dropTarget=0;collapsible=0;recursiveResize=0;outlineConnect=0;portConstraint=eastwest;newEdgeStyle={&quot;edgeStyle&quot;:&quot;elbowEdgeStyle&quot;,&quot;elbow&quot;:&quot;vertical&quot;,&quot;curved&quot;:0,&quot;rounded&quot;:0};labelBackgroundColor=none;" parent="1" vertex="1">
          <mxGeometry x="510" y="50" width="140" height="790" as="geometry" />
        </mxCell>
        <mxCell id="Gn9DC5H_VMgkAR2NqS4y-2" value="" style="html=1;points=[];perimeter=orthogonalPerimeter;outlineConnect=0;targetShapes=umlLifeline;portConstraint=eastwest;newEdgeStyle={&quot;edgeStyle&quot;:&quot;elbowEdgeStyle&quot;,&quot;elbow&quot;:&quot;vertical&quot;,&quot;curved&quot;:0,&quot;rounded&quot;:0};labelBackgroundColor=none;" parent="Gn9DC5H_VMgkAR2NqS4y-1" vertex="1">
          <mxGeometry x="65" y="90" width="10" height="700" as="geometry" />
        </mxCell>
        <mxCell id="Gn9DC5H_VMgkAR2NqS4y-3" value="PUT: /creditos" style="html=1;verticalAlign=bottom;endArrow=block;edgeStyle=elbowEdgeStyle;elbow=horizontal;curved=0;rounded=0;labelBackgroundColor=none;fontColor=default;" parent="1" source="Gn9DC5H_VMgkAR2NqS4y-6" target="Gn9DC5H_VMgkAR2NqS4y-2" edge="1">
          <mxGeometry x="0.0013" relative="1" as="geometry">
            <mxPoint x="310" y="140" as="sourcePoint" />
            <Array as="points">
              <mxPoint x="395" y="140" />
            </Array>
            <mxPoint x="580" y="140" as="targetPoint" />
            <mxPoint as="offset" />
          </mxGeometry>
        </mxCell>
        <mxCell id="Gn9DC5H_VMgkAR2NqS4y-4" value="invalid request" style="html=1;verticalAlign=bottom;endArrow=open;dashed=1;endSize=8;edgeStyle=elbowEdgeStyle;elbow=vertical;curved=0;rounded=0;labelBackgroundColor=none;fontColor=default;" parent="1" edge="1">
          <mxGeometry relative="1" as="geometry">
            <mxPoint x="300" y="430" as="targetPoint" />
            <Array as="points">
              <mxPoint x="405" y="430" />
            </Array>
            <mxPoint x="580" y="430" as="sourcePoint" />
          </mxGeometry>
        </mxCell>
        <mxCell id="Gn9DC5H_VMgkAR2NqS4y-5" value="Cliente" style="shape=umlActor;verticalLabelPosition=bottom;verticalAlign=top;html=1;outlineConnect=0;labelBackgroundColor=none;" parent="1" vertex="1">
          <mxGeometry x="280" y="25" width="30" height="60" as="geometry" />
        </mxCell>
        <mxCell id="Gn9DC5H_VMgkAR2NqS4y-6" value="" style="html=1;points=[];perimeter=orthogonalPerimeter;outlineConnect=0;targetShapes=umlLifeline;portConstraint=eastwest;newEdgeStyle={&quot;edgeStyle&quot;:&quot;elbowEdgeStyle&quot;,&quot;elbow&quot;:&quot;vertical&quot;,&quot;curved&quot;:0,&quot;rounded&quot;:0};labelBackgroundColor=none;" parent="1" vertex="1">
          <mxGeometry x="290" y="140" width="10" height="700" as="geometry" />
        </mxCell>
        <mxCell id="Gn9DC5H_VMgkAR2NqS4y-7" value="" style="endArrow=none;dashed=1;html=1;rounded=0;labelBackgroundColor=none;fontColor=default;" parent="1" edge="1">
          <mxGeometry width="50" height="50" relative="1" as="geometry">
            <mxPoint x="294.55" y="140" as="sourcePoint" />
            <mxPoint x="295" y="100" as="targetPoint" />
          </mxGeometry>
        </mxCell>
        <mxCell id="Gn9DC5H_VMgkAR2NqS4y-8" value="validateCredito()" style="html=1;align=left;spacingLeft=2;endArrow=block;rounded=0;edgeStyle=orthogonalEdgeStyle;curved=0;rounded=0;" parent="1" target="Gn9DC5H_VMgkAR2NqS4y-2" edge="1">
          <mxGeometry relative="1" as="geometry">
            <mxPoint x="600" y="170" as="sourcePoint" />
            <Array as="points">
              <mxPoint x="630" y="170" />
              <mxPoint x="630" y="200" />
            </Array>
            <mxPoint x="605" y="200" as="targetPoint" />
          </mxGeometry>
        </mxCell>
        <mxCell id="Gn9DC5H_VMgkAR2NqS4y-9" value="&lt;font style=&quot;font-size: 10px;&quot;&gt;PUT: /creditos&lt;/font&gt;&lt;div&gt;&lt;font style=&quot;font-size: 10px;&quot;&gt;Content-Type: application/json&lt;/font&gt;&lt;/div&gt;&lt;div&gt;&lt;div&gt;&lt;font style=&quot;font-size: 10px;&quot;&gt;{&lt;/font&gt;&lt;/div&gt;&lt;div&gt;&lt;font style=&quot;font-size: 10px;&quot;&gt;&lt;font style=&quot;background-color: initial;&quot;&gt;&lt;span style=&quot;white-space: pre;&quot;&gt;&#x9;&lt;/span&gt;&quot;id&lt;/font&gt;&lt;span style=&quot;background-color: initial;&quot;&gt;&quot;: &quot;11234-2342&quot;,&lt;/span&gt;&lt;/font&gt;&lt;/div&gt;&lt;div&gt;&lt;span style=&quot;background-color: initial; font-size: 10px; white-space: pre;&quot;&gt;&#x9;&lt;/span&gt;&lt;span style=&quot;background-color: initial; font-size: 10px;&quot;&gt;&quot;tipo&quot;: &quot;PERSONAL&quot;,&lt;/span&gt;&lt;/div&gt;&lt;div&gt;&lt;span style=&quot;font-size: 10px; background-color: initial;&quot;&gt;&lt;span style=&quot;white-space: pre;&quot;&gt;&#x9;&lt;/span&gt;&quot;nroCuenta&quot;: &quot;234234-2341212&quot;&lt;br&gt;&lt;/span&gt;&lt;/div&gt;&lt;div&gt;&lt;span style=&quot;background-color: initial; font-size: 10px; white-space: pre;&quot;&gt;&#x9;&lt;/span&gt;&lt;span style=&quot;background-color: initial; font-size: 10px;&quot;&gt;&quot;limiteCredito&quot;: 7000.00&lt;/span&gt;&lt;/div&gt;&lt;div&gt;&lt;span style=&quot;background-color: initial; font-size: 10px; white-space: pre;&quot;&gt;&#x9;&lt;/span&gt;&lt;span style=&quot;background-color: initial; font-size: 10px;&quot;&gt;&quot;comisionMantenimiento&quot;: 0.00&lt;/span&gt;&lt;/div&gt;&lt;div&gt;&lt;span style=&quot;font-size: 10px; background-color: initial;&quot;&gt;&lt;span style=&quot;white-space: pre;&quot;&gt;&#x9;&lt;/span&gt;&quot;cliente_id&quot;: &quot;72878511asd122&quot;,&lt;br&gt;&lt;/span&gt;&lt;/div&gt;&lt;div&gt;&lt;span style=&quot;font-size: 10px; background-color: initial;&quot;&gt;&lt;span style=&quot;white-space: pre;&quot;&gt;&#x9;&lt;/span&gt;&quot;titulares&quot;: [&lt;/span&gt;&lt;span style=&quot;background-color: initial; font-size: 10px;&quot;&gt;],&lt;/span&gt;&lt;/div&gt;&lt;div&gt;&lt;span style=&quot;font-size: 10px; background-color: initial;&quot;&gt;&lt;span style=&quot;white-space: pre;&quot;&gt;&#x9;&lt;/span&gt;&quot;firmantesAutorizados&quot;: [&lt;/span&gt;&lt;span style=&quot;background-color: initial; font-size: 10px;&quot;&gt;],&lt;/span&gt;&lt;/div&gt;&lt;div&gt;&lt;span style=&quot;font-size: 10px; background-color: initial;&quot;&gt;&lt;span style=&quot;white-space: pre;&quot;&gt;&#x9;&lt;/span&gt;&quot;movimientos&quot;: [&lt;/span&gt;&lt;span style=&quot;background-color: initial; font-size: 10px;&quot;&gt;]&lt;/span&gt;&lt;/div&gt;&lt;/div&gt;&lt;div&gt;&lt;span style=&quot;font-size: 10px;&quot;&gt;}&lt;/span&gt;&lt;/div&gt;" style="shape=note;whiteSpace=wrap;html=1;backgroundOutline=1;darkOpacity=0.05;align=left;" parent="1" vertex="1">
          <mxGeometry x="30" y="110" width="247.5" height="220" as="geometry" />
        </mxCell>
        <mxCell id="Gn9DC5H_VMgkAR2NqS4y-10" value="alt" style="shape=umlFrame;whiteSpace=wrap;html=1;pointerEvents=0;" parent="1" vertex="1">
          <mxGeometry x="30" y="340" width="600" height="180" as="geometry" />
        </mxCell>
        <mxCell id="Gn9DC5H_VMgkAR2NqS4y-11" value="[Caso invÃ¡lido: invalid request]" style="text;html=1;align=center;verticalAlign=middle;whiteSpace=wrap;rounded=0;" parent="1" vertex="1">
          <mxGeometry x="100" y="340" width="170" height="30" as="geometry" />
        </mxCell>
        <mxCell id="Gn9DC5H_VMgkAR2NqS4y-12" value="&lt;font style=&quot;font-size: 10px;&quot;&gt;HTTP 400 Bad Request&lt;/font&gt;&lt;div&gt;&lt;span style=&quot;font-size: 10px; background-color: initial;&quot;&gt;{&lt;/span&gt;&lt;/div&gt;&lt;div&gt;&lt;font style=&quot;font-size: 10px;&quot;&gt;&lt;span style=&quot;white-space: pre;&quot;&gt;&#x9;&lt;/span&gt;&quot;statusCode&quot;: 400,&lt;/font&gt;&lt;/div&gt;&lt;div&gt;&lt;font style=&quot;font-size: 10px;&quot;&gt;&lt;span style=&quot;white-space: pre;&quot;&gt;&#x9;&lt;/span&gt;&quot;error&quot;: &quot;Bad Request&quot;,&lt;/font&gt;&lt;/div&gt;&lt;div&gt;&lt;font style=&quot;font-size: 10px;&quot;&gt;&lt;span style=&quot;white-space: pre;&quot;&gt;&#x9;&lt;/span&gt;&quot;message&quot;: &quot;El campo tipo es requerido&quot;&lt;/font&gt;&lt;/div&gt;&lt;div&gt;&lt;font style=&quot;font-size: 10px;&quot;&gt;}&lt;/font&gt;&lt;/div&gt;" style="shape=note;whiteSpace=wrap;html=1;backgroundOutline=1;darkOpacity=0.05;align=left;" parent="1" vertex="1">
          <mxGeometry x="40" y="390" width="240" height="120" as="geometry" />
        </mxCell>
        <mxCell id="Gn9DC5H_VMgkAR2NqS4y-13" value="MongoDb" style="shape=cylinder3;whiteSpace=wrap;html=1;boundedLbl=1;backgroundOutline=1;size=15;" parent="1" vertex="1">
          <mxGeometry x="760" y="20" width="70" height="70" as="geometry" />
        </mxCell>
        <mxCell id="Gn9DC5H_VMgkAR2NqS4y-14" value="" style="endArrow=none;dashed=1;html=1;rounded=0;entryX=0.5;entryY=1;entryDx=0;entryDy=0;entryPerimeter=0;" parent="1" source="Gn9DC5H_VMgkAR2NqS4y-16" target="Gn9DC5H_VMgkAR2NqS4y-13" edge="1">
          <mxGeometry width="50" height="50" relative="1" as="geometry">
            <mxPoint x="790" y="440" as="sourcePoint" />
            <mxPoint x="810" y="130" as="targetPoint" />
          </mxGeometry>
        </mxCell>
        <mxCell id="Gn9DC5H_VMgkAR2NqS4y-15" value="save in bd" style="html=1;verticalAlign=bottom;endArrow=block;curved=0;rounded=0;" parent="1" edge="1">
          <mxGeometry width="80" relative="1" as="geometry">
            <mxPoint x="590" y="740" as="sourcePoint" />
            <mxPoint x="780" y="740" as="targetPoint" />
          </mxGeometry>
        </mxCell>
        <mxCell id="Gn9DC5H_VMgkAR2NqS4y-16" value="" style="html=1;points=[];perimeter=orthogonalPerimeter;outlineConnect=0;targetShapes=umlLifeline;portConstraint=eastwest;newEdgeStyle={&quot;edgeStyle&quot;:&quot;elbowEdgeStyle&quot;,&quot;elbow&quot;:&quot;vertical&quot;,&quot;curved&quot;:0,&quot;rounded&quot;:0};labelBackgroundColor=none;" parent="1" vertex="1">
          <mxGeometry x="780" y="740" width="10" height="70" as="geometry" />
        </mxCell>
        <mxCell id="Gn9DC5H_VMgkAR2NqS4y-17" value="response" style="html=1;verticalAlign=bottom;endArrow=open;dashed=1;endSize=8;curved=0;rounded=0;" parent="1" edge="1">
          <mxGeometry relative="1" as="geometry">
            <mxPoint x="770.41" y="600" as="sourcePoint" />
            <mxPoint x="580.000909090909" y="600" as="targetPoint" />
          </mxGeometry>
        </mxCell>
        <mxCell id="Gn9DC5H_VMgkAR2NqS4y-18" value="response" style="html=1;verticalAlign=bottom;endArrow=open;dashed=1;endSize=8;curved=0;rounded=0;" parent="1" edge="1">
          <mxGeometry relative="1" as="geometry">
            <mxPoint x="585" y="839" as="sourcePoint" />
            <mxPoint x="300" y="839" as="targetPoint" />
          </mxGeometry>
        </mxCell>
        <mxCell id="Gn9DC5H_VMgkAR2NqS4y-19" value="&lt;font style=&quot;font-size: 10px;&quot;&gt;HTTP 200 Ok&lt;/font&gt;&lt;div&gt;&lt;font style=&quot;font-size: 10px;&quot;&gt;Content-Type: application/json&lt;/font&gt;&lt;/div&gt;&lt;div&gt;&lt;div&gt;&lt;div&gt;&lt;font style=&quot;font-size: 10px;&quot;&gt;{&lt;/font&gt;&lt;/div&gt;&lt;div&gt;&lt;font style=&quot;font-size: 10px;&quot;&gt;&lt;span style=&quot;white-space: pre;&quot;&gt;&#x9;&lt;/span&gt;&lt;/font&gt;&lt;font style=&quot;background-color: initial; font-size: 10px;&quot;&gt;&quot;id&lt;/font&gt;&lt;span style=&quot;background-color: initial; font-size: 10px;&quot;&gt;&quot;: &quot;11234-2342&quot;,&lt;/span&gt;&lt;/div&gt;&lt;div&gt;&lt;span style=&quot;font-size: 10px; background-color: initial;&quot;&gt;&lt;span style=&quot;white-space: pre;&quot;&gt;&#x9;&lt;/span&gt;&quot;tipo&quot;: &quot;PERSONAL&quot;,&lt;br&gt;&lt;/span&gt;&lt;/div&gt;&lt;div&gt;&lt;span style=&quot;font-size: 10px; background-color: initial;&quot;&gt;&lt;span style=&quot;white-space: pre;&quot;&gt;&#x9;&lt;/span&gt;&quot;nroCuenta&quot;: &quot;234234-2341212&quot;&lt;br&gt;&lt;/span&gt;&lt;/div&gt;&lt;div&gt;&lt;span style=&quot;background-color: initial; font-size: 10px; white-space: pre;&quot;&gt;&#x9;&lt;/span&gt;&lt;span style=&quot;background-color: initial; font-size: 10px;&quot;&gt;&quot;limiteCredito&quot;: 7000.00&lt;/span&gt;&lt;/div&gt;&lt;div&gt;&lt;span style=&quot;background-color: initial; font-size: 10px; white-space: pre;&quot;&gt;&#x9;&lt;/span&gt;&lt;span style=&quot;background-color: initial; font-size: 10px;&quot;&gt;&quot;comisionMantenimiento&quot;: 0.00&lt;/span&gt;&lt;/div&gt;&lt;div&gt;&lt;span style=&quot;font-size: 10px; background-color: initial;&quot;&gt;&lt;span style=&quot;white-space: pre;&quot;&gt;&#x9;&lt;/span&gt;&quot;cliente_id&quot;: &quot;72878511asd122&quot;,&lt;br&gt;&lt;/span&gt;&lt;/div&gt;&lt;div&gt;&lt;span style=&quot;font-size: 10px; background-color: initial;&quot;&gt;&lt;span style=&quot;white-space: pre;&quot;&gt;&#x9;&lt;/span&gt;&quot;titulares&quot;: [&lt;/span&gt;&lt;span style=&quot;background-color: initial; font-size: 10px;&quot;&gt;],&lt;/span&gt;&lt;/div&gt;&lt;div&gt;&lt;span style=&quot;font-size: 10px; background-color: initial;&quot;&gt;&lt;span style=&quot;white-space: pre;&quot;&gt;&#x9;&lt;/span&gt;&quot;firmantesAutorizados&quot;: [&lt;/span&gt;&lt;span style=&quot;background-color: initial; font-size: 10px;&quot;&gt;],&lt;/span&gt;&lt;/div&gt;&lt;div&gt;&lt;span style=&quot;font-size: 10px; background-color: initial;&quot;&gt;&lt;span style=&quot;white-space: pre;&quot;&gt;&#x9;&lt;/span&gt;&quot;movimientos&quot;: [&lt;/span&gt;&lt;span style=&quot;background-color: initial; font-size: 10px;&quot;&gt;]&lt;/span&gt;&lt;/div&gt;&lt;/div&gt;&lt;div&gt;&lt;span style=&quot;font-size: 10px;&quot;&gt;}&lt;/span&gt;&lt;/div&gt;&lt;/div&gt;" style="shape=note;whiteSpace=wrap;html=1;backgroundOutline=1;darkOpacity=0.05;align=left;" parent="1" vertex="1">
          <mxGeometry x="40" y="760" width="245" height="260" as="geometry" />
        </mxCell>
        <mxCell id="Gn9DC5H_VMgkAR2NqS4y-20" value="&lt;b&gt;&lt;font style=&quot;font-size: 15px;&quot;&gt;Actualizar un credito&lt;/font&gt;&lt;/b&gt;" style="text;html=1;align=center;verticalAlign=middle;resizable=0;points=[];autosize=1;strokeColor=none;fillColor=none;" parent="1" vertex="1">
          <mxGeometry x="355" y="10" width="170" height="30" as="geometry" />
        </mxCell>
        <mxCell id="puSXRy8rZtM6rj4jGtIk-1" value="return false" style="html=1;verticalAlign=bottom;endArrow=open;dashed=1;endSize=8;edgeStyle=elbowEdgeStyle;elbow=vertical;curved=0;rounded=0;labelBackgroundColor=none;fontColor=default;" edge="1" parent="1">
          <mxGeometry relative="1" as="geometry">
            <mxPoint x="300" y="630" as="targetPoint" />
            <Array as="points">
              <mxPoint x="405" y="630" />
            </Array>
            <mxPoint x="580" y="630" as="sourcePoint" />
          </mxGeometry>
        </mxCell>
        <mxCell id="puSXRy8rZtM6rj4jGtIk-2" value="alt" style="shape=umlFrame;whiteSpace=wrap;html=1;pointerEvents=0;" vertex="1" parent="1">
          <mxGeometry x="30" y="540" width="600" height="180" as="geometry" />
        </mxCell>
        <mxCell id="puSXRy8rZtM6rj4jGtIk-3" value="[Caso invÃ¡lido: credito no existe]" style="text;html=1;align=center;verticalAlign=middle;whiteSpace=wrap;rounded=0;" vertex="1" parent="1">
          <mxGeometry x="100" y="540" width="180" height="30" as="geometry" />
        </mxCell>
        <mxCell id="puSXRy8rZtM6rj4jGtIk-4" value="&lt;font style=&quot;font-size: 10px;&quot;&gt;HTTP 404 Not Found&lt;/font&gt;&lt;div&gt;&lt;span style=&quot;font-size: 10px; background-color: initial;&quot;&gt;{&lt;/span&gt;&lt;/div&gt;&lt;div&gt;&lt;font style=&quot;font-size: 10px;&quot;&gt;&lt;span style=&quot;white-space: pre;&quot;&gt;&#x9;&lt;/span&gt;&quot;statusCode&quot;: 404,&lt;/font&gt;&lt;/div&gt;&lt;div&gt;&lt;font style=&quot;font-size: 10px;&quot;&gt;&lt;span style=&quot;white-space: pre;&quot;&gt;&#x9;&lt;/span&gt;&quot;error&quot;: &quot;Not Found&quot;,&lt;/font&gt;&lt;/div&gt;&lt;div&gt;&lt;font style=&quot;font-size: 10px;&quot;&gt;&lt;span style=&quot;white-space: pre;&quot;&gt;&#x9;&lt;/span&gt;&quot;message&quot;: &quot;El credito no se encontro&quot;&lt;/font&gt;&lt;/div&gt;&lt;div&gt;&lt;font style=&quot;font-size: 10px;&quot;&gt;}&lt;/font&gt;&lt;/div&gt;" style="shape=note;whiteSpace=wrap;html=1;backgroundOutline=1;darkOpacity=0.05;align=left;" vertex="1" parent="1">
          <mxGeometry x="40" y="590" width="240" height="120" as="geometry" />
        </mxCell>
        <mxCell id="puSXRy8rZtM6rj4jGtIk-5" value="findById in bd" style="html=1;verticalAlign=bottom;endArrow=block;curved=0;rounded=0;" edge="1" parent="1">
          <mxGeometry width="80" relative="1" as="geometry">
            <mxPoint x="580" y="530" as="sourcePoint" />
            <mxPoint x="770" y="530" as="targetPoint" />
          </mxGeometry>
        </mxCell>
        <mxCell id="puSXRy8rZtM6rj4jGtIk-6" value="" style="html=1;points=[];perimeter=orthogonalPerimeter;outlineConnect=0;targetShapes=umlLifeline;portConstraint=eastwest;newEdgeStyle={&quot;edgeStyle&quot;:&quot;elbowEdgeStyle&quot;,&quot;elbow&quot;:&quot;vertical&quot;,&quot;curved&quot;:0,&quot;rounded&quot;:0};labelBackgroundColor=none;" vertex="1" parent="1">
          <mxGeometry x="780" y="530" width="10" height="70" as="geometry" />
        </mxCell>
        <mxCell id="puSXRy8rZtM6rj4jGtIk-7" value="response" style="html=1;verticalAlign=bottom;endArrow=open;dashed=1;endSize=8;curved=0;rounded=0;" edge="1" parent="1">
          <mxGeometry relative="1" as="geometry">
            <mxPoint x="780" y="810" as="sourcePoint" />
            <mxPoint x="589.590909090909" y="810" as="targetPoint" />
          </mxGeometry>
        </mxCell>
      </root>
    </mxGraphModel>
  </diagram>
</mxfile>
